<svg width="56" height="55" viewBox="0 0 56 55" fill="none" xmlns="http://www.w3.org/2000/svg">
<path d="M11.4202 43.4409C10.3788 43.4409 9.50993 43.0927 8.81365 42.3965C8.11737 41.7002 7.76847 40.8306 7.76697 39.7877V15.445C7.76697 14.4036 8.11586 13.5347 8.81365 12.8384C9.51144 12.1421 10.3795 11.7933 11.4179 11.7917H44.8077C45.8476 11.7917 46.7157 12.1406 47.412 12.8384C48.1083 13.5362 48.4572 14.4051 48.4587 15.445V39.7899C48.4587 40.8298 48.1098 41.6987 47.412 42.3965C46.7142 43.0942 45.8461 43.4424 44.8077 43.4409H11.4202ZM28.1128 27.8785L46.198 16.0531L45.5018 14.0524L28.1128 25.3557L10.7239 14.0524L10.0276 16.0531L28.1128 27.8785Z" fill="white"/>
</svg>
