<svg width="32" height="33" viewBox="0 0 32 33" fill="none" xmlns="http://www.w3.org/2000/svg">
<path fill-rule="evenodd" clip-rule="evenodd" d="M4.77766 0.736694C3.57436 0.736694 2.42034 1.2147 1.56947 2.06557C0.718611 2.91643 0.240601 4.07045 0.240601 5.27375V27.959C0.240601 29.1623 0.718611 30.3164 1.56947 31.1672C2.42034 32.0181 3.57436 32.4961 4.77766 32.4961H27.4629C28.6662 32.4961 29.8203 32.0181 30.6711 31.1672C31.522 30.3164 32 29.1623 32 27.959V5.27375C32 4.07045 31.522 2.91643 30.6711 2.06557C29.8203 1.2147 28.6662 0.736694 27.4629 0.736694H4.77766ZM7.27758 10.4846C7.99655 10.4846 8.68607 10.1989 9.19447 9.69056C9.70286 9.18217 9.98847 8.49264 9.98847 7.77367C9.98847 7.0547 9.70286 6.36517 9.19447 5.85678C8.68607 5.34839 7.99655 5.06278 7.27758 5.06278C6.5586 5.06278 5.86908 5.34839 5.36069 5.85678C4.8523 6.36517 4.56668 7.0547 4.56668 7.77367C4.56668 8.49264 4.8523 9.18217 5.36069 9.69056C5.86908 10.1989 6.5586 10.4846 7.27758 10.4846ZM9.5461 27.5348V12.6102H5.00905V27.5348H9.5461ZM12.5587 12.6102H17.0958V14.6087C17.765 13.5607 19.235 12.1497 21.9686 12.1497C25.2307 12.1497 27.0024 14.3116 27.0024 18.4244C27.0024 18.6218 27.0206 19.5224 27.0206 19.5224V27.5326H22.4835V19.5246C22.4835 18.4244 22.2521 16.2625 19.8067 16.2625C17.3589 16.2625 17.1525 18.9802 17.0958 20.7587V27.5326H12.5587V12.6102Z" fill="white"/>
</svg>
